<svg xmlns="http://www.w3.org/2000/svg" xmlns:xlink="http://www.w3.org/1999/xlink" width="500" zoomAndPan="magnify" viewBox="136.9765625 99.76953125 101.25 122.875" height="500" preserveAspectRatio="xMidYMid meet" version="1.0"><defs><g/><clipPath id="32496abbd7"><path fill="#FFFFFF" d="M 136.976562 99.707031 L 238.226562 99.707031 L 238.226562 222.707031 L 136.976562 222.707031 Z M 136.976562 99.707031 " clip-rule="nonzero"/></clipPath></defs><g clip-path="url(#32496abbd7)"><path fill="#FFFFFF" d="M 168.429688 189.148438 L 205.5625 189.148438 C 208.695312 189.148438 211.234375 191.679688 211.234375 194.800781 C 211.234375 197.847656 208.695312 200.378906 205.5625 200.378906 L 168.429688 200.378906 C 165.371094 200.378906 162.832031 197.847656 162.832031 194.800781 C 162.832031 191.65625 165.371094 189.148438 168.429688 189.148438 Z M 157.253906 180.523438 C 158.734375 182 158.734375 184.359375 157.253906 185.832031 C 155.773438 187.308594 153.332031 187.308594 151.828125 185.832031 C 147.113281 181.136719 143.363281 175.558594 140.824219 169.464844 C 138.382812 163.394531 136.976562 156.859375 136.976562 150.246094 C 136.976562 136.3125 142.648438 123.707031 151.828125 114.5625 C 161.003906 105.421875 173.660156 99.769531 187.648438 99.769531 C 201.539062 99.769531 214.195312 105.421875 223.375 114.5625 C 232.550781 123.707031 238.226562 136.3125 238.226562 150.246094 C 238.226562 156.859375 236.917969 163.394531 234.375 169.488281 C 231.835938 175.585938 228.085938 181.164062 223.375 185.855469 C 221.894531 187.332031 219.523438 187.332031 218.042969 185.855469 C 216.464844 184.382812 216.464844 182.023438 218.042969 180.546875 C 222.066406 176.46875 225.199219 171.75 227.296875 166.613281 C 229.492188 161.476562 230.625 155.898438 230.625 150.246094 C 230.625 138.402344 225.816406 127.710938 218.042969 119.972656 C 210.175781 112.230469 199.441406 107.363281 187.648438 107.363281 C 175.757812 107.363281 165.027344 112.230469 157.253906 119.972656 C 149.484375 127.710938 144.597656 138.425781 144.597656 150.246094 C 144.597656 155.898438 145.734375 161.476562 147.929688 166.613281 C 150 171.726562 153.132812 176.445312 157.253906 180.523438 Z M 187.648438 113.335938 C 208.003906 113.335938 224.605469 129.777344 224.605469 150.148438 C 224.605469 164.84375 215.945312 177.476562 203.5625 183.398438 L 203.5625 185.757812 L 200.230469 185.757812 L 200.230469 177.402344 C 201.710938 176.714844 202.773438 175.140625 202.773438 173.324219 C 202.773438 170.890625 200.773438 168.875 198.308594 168.875 C 195.839844 168.875 193.84375 170.867188 193.84375 173.324219 C 193.84375 175.140625 194.878906 176.714844 196.382812 177.402344 L 196.382812 185.757812 L 189.476562 185.757812 L 189.476562 171.578125 L 199.269531 161.921875 C 199.613281 162.019531 200.058594 162.019531 200.40625 162.019531 C 202.847656 162.019531 204.871094 160.027344 204.871094 157.570312 C 204.871094 155.039062 202.871094 153.050781 200.40625 153.050781 C 197.9375 153.050781 195.9375 155.039062 195.9375 157.570312 C 195.9375 158.257812 196.039062 158.875 196.285156 159.488281 L 189.476562 166.269531 L 189.476562 153.910156 C 191.054688 153.121094 192.089844 151.648438 192.089844 149.828125 C 192.089844 147.398438 190.09375 145.382812 187.625 145.382812 C 185.082031 145.382812 183.085938 147.371094 183.085938 149.828125 C 183.085938 151.648438 184.121094 153.148438 185.699219 153.910156 L 185.699219 185.757812 L 178.792969 185.757812 L 178.792969 166.710938 C 180.273438 166.023438 181.332031 164.453125 181.332031 162.707031 C 181.332031 160.273438 179.335938 158.257812 176.867188 158.257812 C 174.402344 158.257812 172.402344 160.25 172.402344 162.707031 C 172.402344 164.453125 173.4375 166.023438 174.945312 166.710938 L 174.945312 185.757812 L 171.613281 185.757812 L 171.613281 183.398438 C 159.253906 177.476562 150.59375 164.871094 150.59375 150.148438 C 150.59375 129.800781 167.195312 113.335938 187.648438 113.335938 Z M 174.894531 204.019531 L 199.171875 204.019531 C 202.230469 204.019531 204.769531 206.550781 204.769531 209.597656 C 204.769531 212.71875 202.230469 215.25 199.171875 215.25 L 193.941406 215.25 C 193.941406 215.421875 193.941406 213.773438 193.941406 215.765625 C 193.941406 217.753906 190.882812 222.644531 187.03125 222.644531 C 183.183594 222.644531 180.050781 217.78125 180.050781 215.765625 C 180.050781 213.773438 180.050781 215.421875 180.050781 215.25 L 174.894531 215.25 C 171.761719 215.25 169.21875 212.71875 169.21875 209.597656 C 169.21875 206.550781 171.738281 204.019531 174.894531 204.019531 Z M 174.894531 204.019531 " fill-opacity="1" fill-rule="nonzero"/></g></svg>